<svg width="16" height="16" viewBox="0 0 16 16" fill="none" xmlns="http://www.w3.org/2000/svg">
<path d="M1.5 9.02073L4 7.57735L6.5 9.02073V11.9075L4 13.3509L1.5 11.9075V9.02073Z" stroke="#C5C5C5"/>
<path d="M5 3.02073L7.5 1.57735L10 3.02073V5.90748L7.5 7.35085L5 5.90748V3.02073Z" stroke="#C5C5C5"/>
<path fill-rule="evenodd" clip-rule="evenodd" d="M9 9.3094L11 8.1547L12.5146 9.02915C12.6737 9.00991 12.8357 9 13 9C13.3453 9 13.6804 9.04375 14 9.12602V8.73205L11 7L8 8.73205V12.1962L9.00611 12.777C9.02599 12.4153 9.09394 12.0663 9.20369 11.7364L9 11.6188V9.3094Z" fill="#C5C5C5"/>
<path d="M16 13C16 14.6569 14.6569 16 13 16C11.3431 16 10 14.6569 10 13C10 11.3431 11.3431 10 13 10C14.6569 10 16 11.3431 16 13Z" fill="#89D185"/>
</svg>
