<svg width="573" height="573" viewBox="0 0 573 573" fill="none" xmlns="http://www.w3.org/2000/svg">
<path d="M222.144 74.1288C223.785 74.3019 228.88 74.9079 233.372 75.3364C296.499 82.2446 368.264 122.486 419.128 179.483C485.713 254.097 513.173 344.168 490.201 412.826C487.782 420.167 481.133 434.59 477.852 439.598C476.987 441.065 465.763 436.663 444.519 426.387C405.485 407.649 378.021 388.561 352.981 362.828C336.918 346.332 326.123 331.65 316.795 313.432C310.575 301.256 306.779 291.235 301.598 273.277C291.755 239.251 279.406 217.574 256.261 193.741C224.049 160.581 177.245 135.537 117.136 119.127L106.601 116.279L108.587 114.033C112.647 109.285 122.664 100.736 129.312 96.5026C151.335 82.0802 175.86 74.9122 205.653 74.1374C213.076 73.9556 220.504 73.9557 222.144 74.1288Z" fill="#c5c5c5"/>
<path d="M106.423 132.68C134.056 143.994 152.798 153.924 175.943 169.467C202.714 187.43 227.499 212.215 243.475 236.913C255.391 255.396 263.338 273.355 270.073 297.191C280.176 333.204 293.131 355.569 318.349 380.614C336.831 399.01 355.309 412.047 381.908 425.435C403.412 436.23 429.404 445.986 455.141 452.981L465.676 455.829L459.803 461.703C441.926 479.32 417.921 491.15 390.11 495.989C376.982 498.235 352.457 498.668 338.727 496.941C257.811 486.406 175.856 432.17 122.919 354.275C83.3655 296.07 66.4412 230.351 77.1498 176.808C79.1366 166.792 83.8849 152.283 87.5987 144.856C91.1394 137.774 96.3206 128.879 96.9265 128.879C97.1819 128.966 101.415 130.606 106.423 132.68Z" fill="#c5c5c5"/>
</svg>
