<svg width="16" height="16" viewBox="0 0 16 16" fill="none" xmlns="http://www.w3.org/2000/svg">
<path d="M4.12379 3.41674C4.12379 3.41674 5.09151 5.61517 6.24103 6.53399C6.97131 7.1177 7.53144 7.21492 8.35828 7.65123C9.18511 8.08754 9.74525 8.18476 10.4755 8.76848C11.625 9.68729 12.5928 11.8857 12.5928 11.8857C13.2308 11.3089 13.4947 10.2879 13.3181 9.02116C13.1185 7.58881 12.3629 5.99904 11.1867 4.82283C10.0105 3.64663 8.4207 2.89104 6.98835 2.69137C5.72164 2.51479 4.70064 2.77873 4.12379 3.41674ZM11.8863 12.5935C11.8863 12.5935 10.9171 10.3939 9.76687 9.47404C9.03582 8.88943 8.47512 8.79176 7.64742 8.35459C6.81972 7.91742 6.25902 7.81975 5.52797 7.23514C4.37773 6.31531 3.40852 4.11569 3.40852 4.11569C2.76224 4.67208 2.50225 5.69497 2.69716 6.98974C2.91621 8.44481 3.69939 10.0635 4.87656 11.2406C6.0524 12.4165 7.6275 13.1579 9.04428 13.3447C10.2961 13.5097 11.3096 13.2375 11.8863 12.5935ZM12.9045 12.9044C12.0786 14.1768 10.4888 14.5437 8.9136 14.3361C7.27611 14.1203 5.49911 13.2774 4.16945 11.9477C2.84113 10.6194 1.95918 8.80512 1.70831 7.1386C1.46823 5.5438 1.79521 3.9073 3.10906 3.099C3.93954 1.82803 5.54503 1.4805 7.12641 1.70094C8.77523 1.93079 10.5645 2.78643 11.8938 4.11573C13.2231 5.44502 14.0787 7.23428 14.3086 8.8831C14.5294 10.467 14.1804 12.0751 12.9045 12.9044Z" fill="var(--vscode-charts-green, #89d185)"/>
</svg>